<?xml version="1.0" standalone="no"?>
<!DOCTYPE svg PUBLIC "-//W3C//DTD SVG 20010904//EN"
 "http://www.w3.org/TR/2001/REC-SVG-20010904/DTD/svg10.dtd">
<svg version="1.0" xmlns="http://www.w3.org/2000/svg"
 width="1008.000000pt" height="1008.000000pt" viewBox="0 0 1008.000000 1008.000000"
 preserveAspectRatio="xMidYMid meet">
<metadata>
Created by potrace 1.11, written by Peter Selinger 2001-2013
</metadata>
<g transform="translate(0.000000,1008.000000) scale(0.100000,-0.100000)"
fill="#000000" stroke="none">
<path d="M5037 9433 c-3 -5 -14 -24 -25 -43 -10 -19 -51 -91 -91 -159 -39 -69
-71 -128 -71 -132 0 -4 -6 -14 -12 -21 -7 -8 -18 -23 -24 -33 -20 -36 -61
-109 -98 -173 -20 -35 -36 -68 -36 -73 0 -5 -4 -9 -10 -9 -5 0 -10 -5 -10 -11
0 -5 -24 -51 -54 -102 -53 -90 -78 -134 -120 -209 -87 -154 -196 -345 -233
-405 -23 -39 -43 -76 -43 -82 0 -8 249 -11 835 -11 459 0 835 2 835 6 0 3 -39
73 -87 157 -47 84 -97 172 -111 197 -13 25 -28 50 -32 55 -4 6 -19 30 -32 55
-14 25 -34 61 -45 80 -12 19 -43 73 -69 120 -27 47 -54 94 -61 105 -7 11 -16
27 -20 35 -4 8 -26 48 -50 88 -24 40 -43 75 -43 78 0 3 -16 30 -35 60 -19 30
-35 57 -35 60 0 4 -20 40 -45 81 -25 40 -45 76 -45 78 0 4 -67 119 -90 155 -6
8 -14 25 -20 38 -10 23 -16 27 -23 15z"/>
<path d="M4210 7724 c0 -6 32 -65 79 -146 11 -21 29 -53 40 -70 10 -18 39 -68
65 -111 25 -43 46 -80 46 -82 0 -1 47 -85 105 -185 58 -100 105 -186 105 -191
0 -5 5 -9 12 -9 6 0 8 -3 5 -6 -3 -4 3 -18 13 -32 11 -13 20 -29 20 -35 0 -6
6 -18 14 -26 7 -9 25 -36 38 -61 14 -25 40 -72 59 -105 19 -33 41 -72 49 -87
129 -228 177 -308 186 -308 5 0 20 19 32 43 37 72 94 171 108 188 8 8 14 18
14 22 0 5 244 439 280 497 43 71 140 244 140 251 0 5 5 9 10 9 6 0 10 9 10 19
0 11 4 21 9 23 4 2 25 35 46 73 21 39 45 78 53 88 8 9 12 17 8 17 -4 0 1 12
12 28 10 15 31 48 44 73 43 77 53 94 58 99 29 29 6 30 -825 30 -459 0 -835 -3
-835 -6z"/>
<path d="M3970 7570 c-12 -16 -19 -30 -16 -30 3 0 -10 -25 -29 -55 -19 -30
-35 -57 -35 -60 0 -4 -8 -19 -18 -33 -11 -15 -32 -52 -49 -82 -28 -51 -129
-230 -155 -275 -21 -36 -389 -679 -415 -725 -14 -25 -29 -49 -33 -55 -21 -28
-60 -108 -55 -113 7 -7 1665 -9 1665 -2 -1 8 -102 191 -145 262 -5 9 -25 43
-43 75 -18 32 -37 65 -42 73 -6 8 -13 22 -17 30 -3 8 -20 38 -37 65 -17 28
-37 61 -44 75 -6 14 -16 32 -21 40 -34 52 -111 192 -111 200 0 6 -4 10 -10 10
-5 0 -10 4 -10 9 0 5 -31 64 -70 131 -38 67 -70 124 -70 128 0 3 -6 13 -14 21
-8 9 -26 39 -40 66 -15 28 -31 57 -36 65 -27 43 -78 136 -77 141 1 3 -6 13
-15 23 -10 10 -18 24 -18 32 0 23 -17 16 -40 -16z"/>
<path d="M6083 7588 c-5 -7 -25 -40 -44 -73 -19 -33 -39 -69 -46 -80 -7 -11
-16 -27 -20 -35 -4 -8 -21 -40 -39 -70 -17 -30 -65 -113 -106 -185 -41 -71
-78 -137 -81 -145 -4 -8 -16 -28 -26 -45 -11 -16 -28 -46 -39 -65 -45 -82
-259 -456 -289 -505 -7 -11 -15 -27 -19 -35 -4 -8 -18 -32 -31 -52 -13 -21
-20 -38 -16 -38 5 0 3 -4 -2 -8 -18 -12 -67 -103 -60 -110 8 -8 1665 -9 1665
-1 0 3 -16 31 -35 63 -19 32 -35 65 -35 72 0 8 -3 14 -8 14 -4 0 -16 17 -27
38 -11 20 -32 57 -46 82 -65 110 -80 136 -86 153 -3 9 -9 17 -14 17 -5 0 -9 5
-9 10 0 6 -72 136 -160 290 -88 154 -160 285 -160 290 0 6 -4 10 -10 10 -5 0
-10 5 -10 10 0 6 -11 27 -23 48 -13 20 -35 57 -49 82 -23 42 -34 60 -88 155
-11 19 -29 52 -41 73 -28 50 -34 55 -46 40z"/>
<path d="M3157 5888 c-8 -5 -6 -9 6 -14 9 -3 17 -13 17 -21 0 -8 8 -27 19 -41
10 -15 30 -48 44 -74 14 -26 71 -126 127 -223 56 -97 112 -195 125 -218 12
-23 55 -98 94 -165 39 -68 71 -128 71 -133 0 -5 3 -9 8 -9 4 0 16 -19 27 -43
11 -23 22 -44 25 -47 5 -5 11 -16 58 -99 14 -25 45 -79 69 -119 24 -41 43 -75
43 -77 0 -2 20 -38 45 -79 25 -42 45 -81 45 -87 0 -34 49 30 93 121 6 14 14
27 18 30 3 3 17 25 29 50 12 25 25 47 29 50 3 3 15 23 27 45 54 103 278 491
288 497 6 4 8 8 3 8 -4 0 3 17 16 38 13 20 35 57 49 82 14 25 48 85 77 134 28
49 51 90 51 92 0 1 27 48 60 104 33 56 60 104 60 106 0 2 12 23 26 45 14 23
23 44 19 47 -9 9 -1654 9 -1668 0z"/>
<path d="M5260 5887 c0 -5 17 -39 39 -75 21 -37 50 -87 63 -112 14 -25 78
-136 142 -247 64 -111 116 -207 116 -213 0 -5 4 -10 10 -10 5 0 12 -11 16 -25
3 -14 10 -25 14 -25 4 0 10 -8 13 -17 6 -20 9 -24 226 -401 83 -145 151 -267
151 -272 0 -6 3 -10 8 -10 4 0 12 -10 17 -21 6 -12 14 -22 19 -22 8 1 156 247
156 259 0 1 20 37 45 78 25 42 45 81 45 86 0 6 4 10 9 10 5 0 14 12 20 28 6
15 21 45 34 67 14 22 68 117 121 210 53 94 100 177 106 185 6 8 16 26 22 40 7
14 15 27 18 30 3 3 10 15 17 26 19 34 141 251 194 344 27 47 49 87 49 90 0 3
-376 5 -835 5 -459 0 -835 -4 -835 -8z"/>
<path d="M2930 5749 c-5 -13 -22 -42 -35 -64 -14 -22 -30 -52 -36 -67 -6 -16
-14 -28 -18 -28 -3 0 -15 -20 -26 -45 -11 -25 -23 -45 -27 -45 -5 0 -8 -4 -8
-8 0 -7 -148 -273 -190 -342 -11 -18 -217 -376 -246 -428 -51 -92 -83 -147
-133 -234 -77 -133 -101 -176 -101 -182 0 -3 24 -5 54 -5 29 1 59 -2 65 -5 6
-4 11 -4 11 1 0 7 64 9 80 3 3 -2 10 -1 15 0 21 5 125 1 135 -5 5 -3 10 -3 10
2 0 9 202 8 225 -1 8 -3 15 -2 15 2 0 6 65 7 80 2 3 -2 10 -1 15 0 21 5 125 1
135 -5 5 -3 10 -3 10 2 0 4 46 7 102 6 179 -4 712 -3 716 2 4 3 -48 105 -59
115 -10 9 -149 262 -149 271 0 5 -4 9 -10 9 -5 0 -10 4 -10 10 0 5 -18 39 -40
75 -22 36 -40 67 -40 69 0 2 -28 52 -63 112 -61 106 -104 181 -143 254 -11 19
-22 37 -26 38 -5 2 -8 8 -8 13 0 5 -18 38 -40 74 -22 36 -40 67 -40 70 0 3
-18 34 -40 70 -22 36 -40 68 -40 70 0 3 -11 22 -23 43 -13 20 -39 64 -57 97
-43 79 -47 83 -60 54z"/>
<path d="M7083 5668 c-33 -57 -100 -173 -148 -258 -49 -85 -99 -172 -112 -192
-13 -21 -20 -38 -17 -38 4 0 0 -8 -8 -17 -8 -10 -99 -164 -201 -343 -102 -179
-194 -341 -206 -360 -11 -19 -24 -42 -28 -50 -3 -8 -14 -26 -23 -40 -10 -14
-20 -35 -24 -47 l-7 -23 396 0 c218 0 400 -2 406 -5 5 -4 9 -3 9 2 0 9 202 8
225 -1 8 -3 15 -2 15 2 0 6 65 7 80 2 3 -2 10 -1 15 0 21 5 125 1 135 -5 5 -3
10 -3 10 2 0 9 202 8 225 -1 8 -3 15 -2 15 2 0 8 68 8 76 -1 4 -4 15 -2 26 4
10 5 23 7 28 4 6 -3 10 -3 10 0 0 9 -51 97 -68 118 -8 9 -11 17 -6 17 5 0 5 4
-1 8 -5 4 -21 27 -34 52 -13 25 -31 53 -39 63 -8 9 -11 17 -7 17 4 0 1 8 -7
18 -9 9 -28 40 -43 67 -15 28 -41 73 -57 100 -16 28 -34 62 -41 78 -6 15 -15
27 -19 27 -4 0 -8 4 -8 9 0 4 -41 80 -91 167 -51 88 -103 179 -117 204 -13 25
-28 50 -32 55 -6 9 -33 57 -89 160 -9 17 -18 32 -22 35 -3 3 -20 32 -39 65
-18 33 -41 75 -52 93 -10 17 -27 49 -39 70 -12 20 -22 38 -24 40 -1 2 -30 -43
-62 -100z"/>
<path d="M2110 4051 c1 -3 14 -28 30 -56 16 -27 33 -57 37 -65 4 -8 26 -46 48
-85 23 -38 55 -95 72 -125 16 -30 61 -109 99 -175 39 -66 73 -127 77 -135 4
-8 17 -31 29 -50 12 -19 32 -55 46 -80 41 -73 46 -83 75 -127 15 -24 27 -45
27 -48 0 -3 31 -58 68 -123 38 -64 72 -124 76 -132 4 -8 17 -32 29 -52 12 -20
32 -54 44 -76 11 -21 34 -60 51 -86 l29 -48 34 59 c18 32 38 67 45 78 6 11 25
45 43 75 17 30 37 66 44 80 6 14 14 27 18 30 3 3 21 34 40 70 19 36 37 67 40
70 3 3 19 30 36 60 75 138 178 315 185 318 4 2 8 8 8 14 0 9 49 96 227 403 12
22 26 47 30 55 4 8 24 44 45 79 21 36 38 69 38 72 0 4 -376 7 -835 7 -459 0
-835 -3 -835 -7z"/>
<path d="M6310 4049 c0 -5 14 -31 30 -57 17 -27 30 -54 30 -61 0 -6 5 -11 10
-11 6 0 10 -4 10 -9 0 -5 32 -64 70 -130 39 -67 70 -126 70 -131 0 -4 3 -10 8
-12 7 -3 45 -69 67 -115 5 -13 13 -23 18 -23 4 0 7 -4 7 -9 0 -5 86 -158 190
-341 105 -183 190 -336 190 -340 0 -5 3 -10 8 -12 4 -1 14 -16 23 -33 68 -126
103 -178 111 -165 29 49 175 308 181 320 4 8 16 29 26 45 10 17 57 98 104 180
46 83 99 174 116 203 17 29 31 55 31 58 0 3 5 10 10 17 9 10 210 360 260 452
8 17 35 62 58 102 23 39 42 74 42 76 0 3 -376 5 -835 5 -462 0 -835 -4 -835
-9z"/>
<path d="M1850 3858 c-23 -40 -49 -86 -59 -103 -10 -16 -29 -51 -43 -76 -49
-88 -53 -94 -63 -101 -5 -4 -6 -8 -2 -8 5 0 0 -12 -11 -27 -10 -16 -30 -48
-44 -73 -14 -25 -38 -67 -53 -95 -15 -27 -31 -54 -35 -60 -4 -5 -19 -30 -32
-55 -95 -172 -173 -306 -180 -308 -4 -2 -8 -10 -8 -18 0 -8 -5 -20 -10 -27
-12 -13 -238 -410 -246 -431 -4 -10 162 -12 831 -12 459 0 835 3 835 7 0 3
-157 282 -350 619 -192 337 -350 617 -350 621 0 5 -4 9 -10 9 -5 0 -10 4 -10
9 0 9 -53 106 -88 161 -9 14 -15 28 -14 33 1 4 -2 7 -8 7 -5 0 -28 -33 -50
-72z"/>
<path d="M8165 3890 c-10 -22 -22 -40 -27 -40 -5 0 -6 -4 -3 -10 3 -5 1 -10
-4 -10 -6 0 -11 -5 -11 -11 0 -6 -20 -45 -45 -86 -25 -40 -45 -75 -45 -77 0
-3 -107 -190 -161 -281 -10 -16 -29 -50 -42 -75 -14 -25 -34 -61 -45 -80 -12
-19 -27 -46 -35 -60 -7 -14 -24 -43 -37 -65 -12 -22 -63 -112 -113 -200 -50
-88 -94 -162 -97 -165 -6 -5 -58 -102 -75 -137 -5 -13 -13 -23 -17 -23 -5 0
-8 -6 -8 -13 0 -7 -11 -29 -25 -49 -14 -20 -22 -39 -17 -41 4 -2 381 -4 837
-3 673 1 829 3 827 14 -1 7 -13 30 -25 50 -13 20 -30 52 -38 70 -8 17 -17 32
-21 32 -5 0 -8 4 -8 9 0 4 -41 80 -91 167 -51 88 -103 179 -117 204 -14 25
-36 62 -49 82 -12 21 -23 41 -23 46 0 4 -6 14 -12 21 -7 6 -13 15 -13 19 0 4
-8 18 -16 32 -9 14 -45 75 -79 135 -35 61 -72 126 -83 145 -11 19 -33 60 -50
90 -16 30 -33 60 -37 65 -4 6 -18 28 -30 50 -64 116 -135 235 -140 235 -4 0
-15 -18 -25 -40z"/>
<path d="M1138 2222 c-43 -2 -78 -5 -78 -8 0 -4 33 -62 93 -162 15 -26 32 -56
37 -67 6 -11 21 -38 33 -60 116 -199 167 -289 167 -292 0 -2 11 -20 23 -41 13
-20 35 -57 49 -82 30 -54 49 -88 117 -204 28 -49 51 -90 51 -92 0 -2 18 -33
40 -69 22 -36 40 -67 40 -68 0 -2 31 -57 70 -123 38 -65 75 -131 81 -146 6
-16 15 -28 21 -28 5 0 6 -5 3 -10 -3 -6 1 -10 9 -10 9 0 16 5 16 10 0 6 22 45
48 88 26 42 48 79 48 82 0 3 19 37 41 75 22 39 50 86 60 105 11 19 73 127 137
239 64 112 128 223 140 245 38 68 62 108 95 164 17 29 31 55 31 57 0 2 19 36
43 77 24 40 55 93 69 118 14 25 34 61 46 81 11 20 26 47 34 60 7 13 19 32 27
42 13 16 4 17 -175 17 -104 1 -448 2 -764 3 -316 1 -610 1 -652 -1z"/>
<path d="M5342 2222 l-94 -3 18 -27 c16 -24 40 -66 106 -182 11 -19 37 -64 58
-100 39 -68 47 -82 140 -245 61 -108 80 -141 129 -223 17 -29 31 -55 31 -57 0
-3 18 -34 40 -70 22 -36 40 -67 40 -69 0 -3 27 -50 60 -106 33 -56 60 -103 60
-105 0 -2 27 -49 60 -105 33 -56 60 -104 60 -106 0 -3 11 -21 24 -40 l23 -35
13 32 c7 17 18 36 24 43 6 6 20 29 31 51 11 22 22 42 25 45 3 3 10 14 16 25
57 105 95 172 131 230 7 11 21 36 31 55 11 19 81 142 156 273 75 131 136 242
136 248 0 5 5 9 10 9 6 0 10 4 10 9 0 5 56 107 125 226 69 120 123 220 121
222 -5 5 -1445 9 -1584 5z"/>
<path d="M7414 2220 l-60 -5 232 -405 c231 -402 278 -484 298 -527 6 -13 14
-23 19 -23 4 0 7 -4 7 -9 0 -5 50 -95 110 -201 61 -106 110 -196 110 -201 0
-5 5 -9 10 -9 6 0 10 -4 10 -9 0 -6 10 -26 22 -47 l21 -36 29 53 c16 30 38 70
49 89 19 31 311 542 369 645 13 22 31 54 41 70 10 17 28 48 40 70 34 62 40 72
109 193 36 62 71 125 79 140 8 15 17 29 20 32 3 3 21 34 40 70 19 36 38 67 42
70 4 3 9 13 11 23 3 18 -27 19 -772 20 -426 1 -802 0 -836 -3z"/>
<path d="M812 2042 c-36 -63 -67 -118 -118 -205 -19 -32 -34 -60 -34 -63 0 -2
-12 -23 -26 -45 -14 -23 -37 -62 -51 -87 -32 -57 -40 -72 -138 -242 -42 -74
-87 -153 -100 -175 -54 -97 -65 -116 -89 -153 -14 -22 -22 -43 -19 -46 4 -3 1
-6 -5 -6 -7 0 -12 -7 -12 -15 0 -8 -4 -15 -10 -15 -5 0 -10 -5 -10 -11 0 -6
-22 -49 -50 -96 -27 -47 -50 -89 -50 -94 0 -5 -4 -9 -8 -9 -4 0 -14 -16 -21
-35 -7 -19 -17 -35 -22 -35 -5 0 -9 -7 -9 -16 0 -8 -7 -22 -15 -30 -8 -9 -15
-20 -15 -25 0 -5 328 -9 835 -9 790 0 834 1 828 17 -8 22 -271 483 -287 502
-6 8 -11 17 -10 20 1 3 -4 15 -11 26 -48 79 -75 126 -75 130 0 3 -13 26 -29
52 -16 27 -42 71 -58 98 -15 28 -84 149 -153 269 -69 119 -136 238 -150 264
-14 26 -32 57 -41 69 -15 21 -16 21 -47 -35z"/>
<path d="M5025 2069 c-10 -19 -23 -37 -29 -41 -6 -4 -8 -8 -4 -8 4 0 -20 -45
-53 -100 -32 -55 -59 -102 -59 -104 0 -2 -36 -65 -80 -141 -44 -76 -80 -139
-80 -141 0 -3 -12 -23 -27 -47 -15 -23 -34 -56 -42 -72 -9 -17 -63 -112 -121
-213 -58 -100 -116 -202 -129 -225 -13 -23 -43 -75 -67 -115 -23 -40 -46 -81
-49 -92 -4 -11 -11 -20 -16 -20 -6 0 -8 -4 -4 -9 3 -5 1 -12 -5 -16 -10 -6
-50 -78 -50 -90 0 -3 376 -5 835 -5 459 0 835 2 835 5 0 2 -8 19 -19 37 -19
34 -79 139 -112 196 -11 17 -29 49 -40 70 -12 20 -33 57 -48 82 -56 96 -72
126 -84 153 -6 15 -15 27 -19 27 -4 0 -8 4 -8 9 0 5 -49 94 -110 199 -60 105
-110 195 -110 200 0 6 -4 12 -8 14 -7 3 -38 55 -105 178 -17 30 -38 67 -49 82
-10 14 -18 28 -18 31 0 3 -24 46 -54 97 l-54 93 -17 -34z"/>
<path d="M7134 2086 c-5 -6 -15 -22 -22 -36 -7 -14 -18 -34 -25 -45 -7 -11
-39 -67 -72 -125 -33 -57 -65 -114 -72 -125 -6 -11 -20 -36 -31 -55 -10 -19
-36 -64 -57 -100 -21 -36 -47 -81 -57 -100 -11 -19 -25 -44 -31 -55 -7 -11
-39 -68 -71 -125 -33 -58 -66 -113 -74 -122 -8 -10 -12 -18 -8 -18 4 0 -1 -12
-12 -27 -10 -16 -30 -48 -44 -73 -30 -54 -55 -98 -94 -165 -16 -27 -41 -71
-54 -97 -14 -27 -28 -48 -32 -48 -5 0 -8 -5 -8 -11 0 -7 -13 -34 -30 -61 -16
-26 -30 -53 -30 -58 0 -7 293 -10 835 -10 l835 0 -17 35 c-9 19 -20 35 -25 35
-4 0 -8 9 -8 20 0 11 -3 20 -7 20 -5 0 -13 10 -19 23 -19 40 -76 142 -93 167
-10 14 -25 41 -35 60 -18 37 -38 72 -46 80 -5 5 -33 55 -58 105 -9 17 -20 33
-26 37 -6 4 -8 8 -4 8 3 0 -25 52 -63 116 -38 63 -69 117 -69 118 0 2 -82 147
-183 323 -122 214 -186 316 -193 309z"/>
<path d="M9214 2054 c-16 -27 -36 -62 -44 -79 -8 -16 -17 -32 -21 -35 -3 -3
-23 -36 -44 -75 -22 -38 -48 -83 -58 -100 -9 -16 -20 -38 -23 -47 -4 -10 -11
-18 -17 -18 -6 0 -7 -3 -4 -6 4 -4 -2 -19 -12 -33 -10 -14 -35 -57 -56 -96
-22 -38 -41 -72 -44 -75 -3 -3 -14 -21 -23 -40 -10 -19 -26 -48 -36 -65 -9
-16 -33 -57 -52 -90 -19 -33 -40 -69 -47 -80 -7 -11 -15 -27 -19 -35 -4 -8
-17 -31 -29 -50 -12 -19 -35 -60 -52 -90 -16 -30 -66 -118 -110 -195 -44 -77
-90 -157 -102 -177 l-21 -38 841 0 841 0 -25 42 c-14 24 -34 59 -44 78 -92
163 -129 225 -135 228 -5 2 -8 12 -8 22 0 10 -3 20 -8 22 -6 3 -45 69 -139
236 -13 23 -53 93 -89 154 -35 61 -64 112 -64 113 0 1 -36 64 -80 140 -44 76
-80 139 -80 141 0 1 -30 54 -67 116 -36 62 -74 128 -83 147 l-17 33 -29 -48z"/>
</g>
</svg>
